{"title":"DUE.DATE.2010.Cam.XviD.Feel-Free","uid":5942517,"size":790503724,"categoryP":"video","categoryS":"movies","magnet":"?xt=urn:btih:9abd0f859b6edc337dfba45d024829f14bd31ead&amp;dn=DUE.DATE.2010.Cam.XviD.Feel-Free&amp;tr=udp%3A%2F%2Ftracker.openbittorrent.com%3A80&amp;tr=udp%3A%2F%2Fopen.demonii.com%3A1337&amp;tr=udp%3A%2F%2Ftracker.coppersurfer.tk%3A6969&amp;tr=udp%3A%2F%2Fexodus.desync.com%3A6969","seeders":2,"leechers":0,"uploader":"deffjam555","files":9,"time":1289227683,"description":"Genre:Comedy\nLanguage:English\nIMDb:http://www.imdb.com/title/tt1231583/\nSource:ELEKTRI4KA/AUDIO LU.Thx\n\nGeneral\nComplete name :DUE.DATE.2010.Cam.XviD.Feel-Free\nFormat : AVI\nFormat/Info : Audio Video Interleave\nFile size : 752 MiB\nDuration : 1h 23mn\nOverall bit rate : 1 262 Kbps\nVideo #0\nCodec ID : XVID\nCodec ID/Hint : XviD\nDuration : 1h 23mn\nBit rate : 1 124 Kbps\nWidth : 720 pixels\nHeight : 304 pixels\nDisplay aspect ratio : 2.35:1\nFrame rate : 25.000 fps\nResolution : 24 bits\nColorimetry : 4:2:0\nScan type : Progressive\nBits/(Pixel*Frame) : 0.205\nStream size : 670 MiB (89%)\nWriting library : XviD 1.2.1 (UTC 2008-12-04)\nAudio #1\nID : 1\nFormat : MPEG Audio\nFormat version : Version 1\nFormat profile : Layer 3\nCodec ID : 55\nCodec ID/Hint : MP3\nDuration : 1h 23mn\nBit rate mode : Constant\nBit rate : 128 Kbps\nChannel(s) : 2 channels\nSampling rate : 48.0 KHz\nResolution : 16 bits\nStream size : 76.3 MiB (10%)\nAlignment : Split accross interleaves\nInterleave, duration : 40 ms (1.00 video frame)\nInterleave, preload duration : 500 ms\n\nPlot:\nHigh-strung father-to-be Peter Highman is forced to hitch a ride with aspiring actor Ethan Tremblay on a road trip in order to make it to his child's birth on time.\n\nTRAILER:","torrent":{"xt":"urn:btih:9abd0f859b6edc337dfba45d024829f14bd31ead","amp;dn":"DUE.DATE.2010.Cam.XviD.Feel-Free","amp;tr":["udp%3A%2F%2Ftracker.openbittorrent.com%3A80","udp%3A%2F%2Fopen.demonii.com%3A1337","udp%3A%2F%2Ftracker.coppersurfer.tk%3A6969","udp%3A%2F%2Fexodus.desync.com%3A6969"],"infoHash":"9abd0f859b6edc337dfba45d024829f14bd31ead","infoHashBuffer":{"type":"Buffer","data":[154,189,15,133,155,110,220,51,125,251,164,93,2,72,41,241,75,211,30,173]},"announce":[],"urlList":[]}}